<svg width="18" height="18" viewBox="0 0 18 18" fill="none" xmlns="http://www.w3.org/2000/svg">
<rect width="18" height="18" rx="5" fill="#A79700"/>
<path d="M11.3091 5.84014L9 8.14929L6.69085 5.84014C6.57804 5.72733 6.42503 5.66395 6.26549 5.66395C6.10594 5.66395 5.95293 5.72733 5.84012 5.84014C5.7273 5.95296 5.66392 6.10597 5.66392 6.26551C5.66392 6.42506 5.7273 6.57807 5.84012 6.69088L8.14926 9.00003L5.84012 11.3092C5.7273 11.422 5.66392 11.575 5.66392 11.7345C5.66392 11.8941 5.7273 12.0471 5.84012 12.1599C5.95293 12.2727 6.10594 12.3361 6.26548 12.3361C6.42503 12.3361 6.57804 12.2727 6.69085 12.1599L9 9.85076L11.3091 12.1599C11.422 12.2727 11.575 12.3361 11.7345 12.3361C11.8941 12.3361 12.0471 12.2727 12.1599 12.1599C12.2727 12.0471 12.3361 11.8941 12.3361 11.7345C12.3361 11.575 12.2727 11.422 12.1599 11.3092L9.85074 9.00003L12.1599 6.69088C12.2727 6.57807 12.3361 6.42506 12.3361 6.26551C12.3361 6.10597 12.2727 5.95296 12.1599 5.84014C12.0471 5.72733 11.8941 5.66395 11.7345 5.66395C11.575 5.66395 11.422 5.72733 11.3091 5.84014Z" fill="#F8F1E5" stroke="#F8F1E5" stroke-width="0.5"/>
</svg>
