<svg width="20" height="20" viewBox="0 0 20 20" fill="none" xmlns="http://www.w3.org/2000/svg">
<g clip-path="url(#clip0_1228_24)">
<path d="M3.65384 12.8462L7.07691 16.2693C7.23076 16.4232 7.46153 16.4232 7.61537 16.2693L16.1538 7.69239C16.3077 7.53855 16.3077 7.30778 16.1538 7.15393L12.7692 3.76932C12.6154 3.61547 12.3846 3.61547 12.2308 3.76932L3.65384 12.3462C3.49999 12.5001 3.49999 12.7309 3.65384 12.8462Z" fill="#676127"/>
<path d="M13.8846 2.19236C13.7308 2.34621 13.7308 2.57698 13.8846 2.73083L17.2692 6.11544C17.4231 6.26929 17.6538 6.26929 17.8077 6.11544L18.7692 5.1539C19.3846 4.57698 19.3846 3.6539 18.7692 3.03852L16.9615 1.23083C16.3461 0.615441 15.3846 0.615441 14.7692 1.23083L13.8846 2.19236Z" fill="#676127"/>
<path d="M0.807673 18.5385C0.73075 18.9231 1.0769 19.2693 1.46152 19.1924L5.65383 18.1924C5.80767 18.1539 5.92306 18.077 5.99998 18.0001L6.0769 17.9231C6.15383 17.8462 6.19229 17.577 6.03844 17.4231L2.5769 13.9616C2.42306 13.8078 2.15383 13.8462 2.0769 13.9231C1.99998 14.0001 1.99998 14.0001 1.99998 14.0001C1.8846 14.1155 1.84613 14.2308 1.80767 14.3462L0.807673 18.5385Z" fill="#676127"/>
</g>
<defs>
<clipPath id="clip0_1228_24">
<rect width="20" height="20" fill="white"/>
</clipPath>
</defs>
</svg>
