<svg width="20" height="20" viewBox="0 0 20 20" fill="none" xmlns="http://www.w3.org/2000/svg">
<path opacity="0.5" fill-rule="evenodd" clip-rule="evenodd" d="M5.41669 1.45837C5.41669 1.1132 5.13686 0.833374 4.79169 0.833374C4.44651 0.833374 4.16669 1.1132 4.16669 1.45837V18.125C4.16669 18.4702 4.44651 18.75 4.79169 18.75C5.13686 18.75 5.41669 18.4702 5.41669 18.125V11.3334V3.00004V1.45837Z" fill="#676127"/>
<path d="M11.1239 3.15793L10.9541 3.09005C9.65177 2.56911 8.22602 2.43821 6.85058 2.7133L5.41669 3.00007V11.3334L6.85058 11.0466C8.22602 10.7715 9.65177 10.9025 10.9541 11.4234C12.3654 11.9879 13.9187 12.0933 15.3934 11.7246L15.572 11.68C16.0929 11.5498 16.4584 11.0817 16.4584 10.5449V4.40565C16.4584 3.75518 15.8471 3.2779 15.216 3.43566C13.8567 3.7755 12.4248 3.67832 11.1239 3.15793Z" fill="#676127"/>
</svg>
