<svg width="18" height="18" viewBox="0 0 18 18" fill="none" xmlns="http://www.w3.org/2000/svg">
<path d="M16.875 6.4125H4.5V4.8375H16.875V6.4125ZM2.25 2.25C2.87132 2.25 3.375 2.75368 3.375 3.375V7.875C3.375 8.49632 2.87132 9 2.25 9C1.62868 9 1.125 8.49632 1.125 7.875V3.375C1.125 2.75368 1.62868 2.25 2.25 2.25ZM9 11.5875V10.125C9 9.50368 9.50368 9 10.125 9C10.7463 9 11.25 9.50368 11.25 10.125V14.625C11.25 15.2463 10.7463 15.75 10.125 15.75C9.50368 15.75 9 15.2463 9 14.625V13.1625H1.125V11.5875H9ZM16.875 13.1625H12.375V11.5875H16.875V13.1625Z" fill="#F8F1E5"/>
</svg>
