<svg width="20" height="20" viewBox="0 0 20 20" xmlns="http://www.w3.org/2000/svg">
<path d="M4.27347 6.79492C4.27347 8.67525 4.27347 11.3248 4.27347 12.6069C4.35894 13.718 4.44441 15.171 4.52988 16.1967C4.61535 17.3932 5.64099 18.3334 6.83758 18.3334H13.1623C14.3589 18.3334 15.3846 17.3932 15.4701 16.1967C15.5555 15.171 15.641 13.718 15.7265 12.6069C15.8119 11.3248 15.7265 8.67525 15.7265 6.79492H4.27347Z" />
<path d="M15.9829 4.23085H13.8462L13.1624 2.9488C12.7351 2.17957 11.9658 1.66675 11.1111 1.66675H9.05983C8.20512 1.66675 7.35042 2.17957 7.00854 2.9488L6.15384 4.23085H4.01709C3.67521 4.23085 3.33333 4.57273 3.33333 4.91461C3.33333 5.25649 3.67521 5.59837 4.01709 5.59837H15.9829C16.3247 5.59837 16.6667 5.34196 16.6667 4.91461C16.6667 4.48726 16.3247 4.23085 15.9829 4.23085ZM7.60684 4.23085L8.03419 3.54709C8.20512 3.20521 8.54699 2.9488 8.97433 2.9488H11.0257C11.453 2.9488 11.7948 3.11974 11.9658 3.54709L12.3932 4.23085H7.60684Z" />
</svg>
